<svg version="1.1" id="Layer_1" xmlns="http://www.w3.org/2000/svg" x="0" y="0" viewBox="0 0 220.4 73.4" xml:space="preserve"><style>.st0{fill:#595a5c}.st1{fill:#0494c5}.st2{fill:#212052}.st3{fill:#fff}</style><path class="st0" d="M77.9 61.2h-.8l-1.2-3.5-1-3.1-1 3.1-1.2 3.5h-.8L69 53h.9l2.4 7.1 2.4-7.1h.5l2.4 7.1L80 53h.9l-3 8.2zM86.3 55.3h.7v5.8h-.7V60c-.5.9-1.4 1.3-2.3 1.3-1.6 0-3-1.2-3-3s1.3-3 3-3c.9 0 1.8.4 2.3 1.2v-1.2zm-4.4 2.9c0 1.4 1 2.3 2.2 2.3 3 0 3-4.5 0-4.5-1.3 0-2.2.9-2.2 2.2zM89.8 52.9v8.2H89v-8.2h.8zM92.4 52.9v4.9l2.5-2.5h1L93.1 58l3.1 3h-1l-2.9-2.8V61h-.8v-8.2l.9.1zM97.8 62.2h-.6l.3-1c-.2-.1-.4-.2-.4-.5 0-.7 1.1-.7 1.1 0 .1.3-.1.8-.4 1.5zM109.2 61.1h-5.9v-8.2h5.8v.8h-5v2.9h4.7v.8h-4.7v3h5.1v.7zM114.3 55.3h.9l-2 2.8 2.2 3h-.9l-1.7-2.4-1.7 2.4h-.9l2.2-3-2-2.8h.9l1.6 2.3 1.4-2.3zM116.5 63.9v-8.6h.8v1.2c.4-.8 1.3-1.3 2.3-1.3 1.6 0 2.9 1.2 2.9 3 0 1.9-1.2 3-2.9 3-.9 0-1.8-.4-2.3-1.3v3.9c0 .1-.8.1-.8.1zm5.2-5.7c0-1.4-.9-2.2-2.2-2.2-1.3 0-2.2 1-2.2 2.2 0 1.3.9 2.2 2.2 2.2 1.3.1 2.2-.7 2.2-2.2zM124.9 52.9v8.2h-.8v-8.2h.8zM132.4 58.3c0 1.8-1.3 3-3 3s-3-1.2-3-3 1.2-3 3-3c1.7-.1 3 1.2 3 3zm-5.2 0c0 1.3.9 2.2 2.2 2.2 1.3 0 2.2-.9 2.2-2.2 0-1.3-.9-2.3-2.2-2.3-1.3 0-2.2.9-2.2 2.3zM134.6 55.3v1c.4-.8 1.1-1 1.8-1 .5 0 .9.1 1.3.4l-.4.7c-.3-.2-.6-.3-1-.3-1 0-1.8.8-1.8 1.8v3.3h-.8v-5.8l.9-.1zM138.9 58.6c.1 1.2 1 1.9 2.2 1.9.7 0 1.5-.3 2-.8l.5.5c-.6.7-1.6 1.1-2.5 1.1-1.7 0-3-1.2-3-3 0-1.7 1.2-3 3-3s3.1 1 2.9 3.3h-5.1zm4.4-.7c0-1.3-1-2-2.1-2-1.2 0-2 .7-2.2 2h4.3zM153.3 55.3h.7v5.8h-.7V60c-.5.9-1.4 1.3-2.3 1.3-1.6 0-3-1.2-3-3s1.3-3 3-3c.9 0 1.8.4 2.3 1.2v-1.2zm-4.4 2.9c0 1.4 1 2.3 2.2 2.3 3 0 3-4.5 0-4.5-1.3 0-2.2.9-2.2 2.2zM160.5 61.1v-3.3c0-1.2-.7-1.9-1.9-1.9-1.1 0-1.9.9-1.9 2v3.2h-.8v-5.8h.8v1c.5-.7 1.2-1.1 2-1.1 1.5 0 2.6.9 2.6 2.6v3.3h-.8zM168.6 52.9v8.2h-.8v-1.2c-.5.8-1.4 1.3-2.3 1.3-1.6 0-2.9-1.1-2.9-3s1.3-3 2.9-3c.9 0 1.8.4 2.3 1.3v-3.6h.8zm-5.2 5.3c0 1.5 1 2.3 2.2 2.3 1.2 0 2.2-.9 2.2-2.3 0-1.3-1-2.2-2.2-2.2-1.2 0-2.2.8-2.2 2.2zM176.6 52.9c2.8 0 4.1 2 4.1 4 0 2.1-1.2 4.2-4.1 4.2h-2.9v-8.2h2.9zm-2 7.5h2.1c2.3 0 3.3-1.8 3.3-3.4 0-1.6-1.1-3.2-3.3-3.2h-2.1v6.6zM183.2 53.5c0 .7-1.1.7-1.1 0s1.1-.7 1.1 0zm-1 1.8v5.8h.8v-5.8h-.8zM188.6 56.5c-.5-.5-1.1-.6-1.7-.6-.8 0-1.6.3-1.6.9 0 .7.9.8 1.6 1 1 .2 2.4.3 2.4 1.7 0 1.2-1.2 1.7-2.4 1.7-1 0-2-.3-2.6-1.1l.5-.5c.5.7 1.4.9 2.1.9.7 0 1.6-.2 1.6-1s-.8-.9-1.7-1c-1.1-.2-2.3-.4-2.3-1.6 0-1.2 1.2-1.7 2.3-1.7.9 0 1.6.2 2.2.8l-.4.5zM195.5 60.4c-.6.6-1.4.9-2.2.9-1.7 0-3-1.1-3-3s1.3-3 3-3c.8 0 1.5.3 2.1.9l-.5.5c-.4-.4-1-.6-1.5-.6-1.2 0-2.2.8-2.2 2.3 0 1.5 1 2.3 2.2 2.3.6 0 1.2-.2 1.6-.7l.5.4zM202.2 58.3c0 1.8-1.3 3-3 3s-3-1.2-3-3 1.2-3 3-3c1.7-.1 3 1.2 3 3zm-5.2 0c0 1.3.9 2.2 2.2 2.2 1.3 0 2.2-.9 2.2-2.2 0-1.3-.9-2.3-2.2-2.3-1.3 0-2.2.9-2.2 2.3zM208.6 55.3l-2.4 5.8h-.9l-2.4-5.8h.9l2 4.9 2-4.9h.8zM210 58.6c.1 1.2 1 1.9 2.2 1.9.7 0 1.5-.3 2-.8l.5.5c-.6.7-1.6 1.1-2.5 1.1-1.7 0-3-1.2-3-3 0-1.7 1.2-3 3-3 1.7 0 3.1 1 2.9 3.3H210zm4.3-.7c0-1.3-1-2-2.1-2s-2 .7-2.2 2h4.3zM217.2 55.3v1c.4-.8 1.1-1 1.8-1 .5 0 .9.1 1.3.4l-.4.7c-.3-.2-.6-.3-1-.3-1 0-1.8.8-1.8 1.8v3.3h-.8v-5.8l.9-.1z"/><g><path class="st1" d="M79 18.4c-.1-1.8-.1-2.5-.1-3.1V10h4.3v15.3h-3.7l-6.4-8.2.1 3.3v4.9h-4.4V10h3.7l6.5 8.4zM98.6 25.3H86.3V10h11.9v3.6h-7.7v2.2h7.2v3.5h-7.2v2.3h8c.1.1.1 3.7.1 3.7zM105.3 21.2v4.1H101V10h7.4c4.1 0 6.1 2.6 6.1 5.6 0 3.1-2.1 5.6-6.1 5.6h-3.1zm0-3.7h3.1c1.2 0 1.8-.9 1.8-1.9 0-1-.6-1.9-1.8-1.9h-3.1v3.8zM126 22.8h-6.8l-1 2.5h-4.6l6.9-15.3h4.4l6.8 15.3H127l-1-2.5zm-3.4-8.5l-2 4.9h3.9l-1.9-4.9zM137.2 10v11.6h7.3v3.7h-11.6V10h4.3z"/></g><g><path class="st2" d="M78.7 46.7v-5.8h-5.5v5.8h-4.3V31.4h4.3v5.8h5.5v-5.8H83v15.3h-4.3zM86.1 46.7V31.4h4.3v15.3h-4.3zM107 31.7l-6.2 7.2c2.1 2.4 4.6 5.1 6.7 7.5v.3h-5.4l-4.4-5.1v5.1h-4.3V31.4h4.3v5c1.3-1.6 2.7-3.4 4-5h5.2v.3zM108.9 46.7V31.4h4.3v15.3h-4.3zM126.4 39.8c-.1-1.8-.1-2.5-.1-3.1v-5.2h4.4v15.3H127l-6.4-8.2.1 3.3v4.9h-4.4V31.4h3.7l6.4 8.4zM144.8 35.9c-1.1-1-2.5-1.3-3.5-1.3-2.5 0-4.1 1.5-4.1 4.5 0 2 1 4.4 4.1 4.4.8 0 2.1-.2 3-.8v-2h-3.9v-3.4h7.5v6.8c-1 1.9-3.6 3-6.6 3-6.1 0-8.4-4-8.4-8s2.6-8.1 8.4-8.1c2.1 0 4 .4 6 2.5l-2.5 2.4zM157.9 35h-4.5v-3.6h13.2V35h-4.5v11.7h-4.3l.1-11.7zM180.8 46.7h-12.2V31.4h11.9V35h-7.7v2.2h7.2v3.5h-7.2V43h8v3.7zM193.8 44.2H187l-1 2.5h-4.6l6.9-15.3h4.4l6.8 15.3h-4.6l-1.1-2.5zm-3.4-8.5l-2 4.9h3.9l-1.9-4.9zM213.4 37.6l-3.9 4.6h-.8l-3.8-4.6v9.1h-4.3V31.4h4.5l4 5.2 4-5.2h4.5v15.3h-4.3l.1-9.1z"/></g><g><path class="st2" d="M0 69.1V.4C0 .1.1 0 .4 0h60.8c.1 0 .1.1.1.1V69c-.2.2-.4.2-.6.2H40.5c-.3 0-.4.1-.3.4.1.6.2 1.3.2 1.9 0 .4-.1.8-.3 1.2-.2.4-.5.5-.9.6h-.9c-1-.2-1.3-1-1.5-1.8-.1-.6-.2-1.1-.3-1.7-.1-.6-.1-.6-.8-.6H.7c-.2.1-.5.1-.7-.1z"/><path class="st3" d="M60.2 37.6v29.8c0 .4-.1.5-.5.5h-9.1c-.4 0-.5-.1-.5-.5V66c0-.6-.3-.9-1-.9-1 0-1 0-1-1v-2.5c0-3-1.4-5.1-4-6.5-1.4-.7-2.8-1-4.4-1.1-.7 0-1.4-.1-2.1-.2-.2 0-.3-.1-.3-.3-.2-1.7-.5-3.4-.8-5.2l-1.2-8.1-1.2-8.1c-.4-2.7-.8-5.4-1.2-8-.1-1-.3-1.9-.4-2.9 0-.2 0-.4.1-.6.8-1 1.5-2 2.6-2.7.2-.1.4-.3.7-.4 1-.4 1.9-.3 2.7.4.5.4.9.9 1.2 1.5 1 1.8 1.9 3.6 2.8 5.4 1 1.8 1.8 3.6 2.8 5.4l.9 1.2c.5.4.8.5 1.3.1s.9-.8 1.3-1.2c.3-.4.7-.8 1.1-1.2.6-.6 1.3-.7 2.1-.2.5.3 1 .7 1.3 1.2.5.7 1.1 1.3 1.7 1.9 1.5 1.6 3 3.2 4.4 4.9.5.1.6.4.7.7z"/><path d="M60.2 37.6c-1.1-1.5-2.5-2.8-3.7-4.2-1-1.2-2.1-2.2-3-3.5-.3-.4-.6-.7-1-1-.7-.5-1.4-.4-2 .2-.7.6-1.3 1.4-1.9 2-1 1-1.5.9-2.4-.2-.8-1.1-1.3-2.3-1.9-3.5-1.4-2.7-2.8-5.3-4.2-8-.3-.5-.6-.9-1-1.3-.9-.8-1.9-1-2.9-.4-.8.4-1.4 1-2 1.7-.4.4-.7.9-1.1 1.3-.1.1-.2.3-.2.4-.2-1.3-.4-2.6-.6-4-.5-3.1-.9-6.2-1.4-9.3-.3-2.2-.6-4.3-.9-6.5 0-.3 0-.4.3-.3h29.5c.6 0 .6-.1.6.6V37c-.2.3-.2.5-.2.6z" fill="#1a96c8"/><path class="st3" d="M24.4 46.4c1.1-.2 2.1-.1 3.2 0 .8.1 1.4-.2 1.7-1 .6-1.5.4-2.3-1-3-.6-.3-1.2-.4-1.9-.6-.1 0-.2 0-.3-.1.5-.5.8-1 .7-1.7 0-1-.6-1.5-1.5-1.6-1-.1-1.9.4-2.7.9l-1.2.9c-.1-.3 0-.7-.1-1-.1-.7-.3-1.3-.7-1.8-.5-.6-.4-1.6 0-2.2.8-1.1 1.3-2.4 1.6-3.7.1-.3.3-.4.5-.6 1.4-1.2 2.8-2.4 4.1-3.6.8-.8 1.5-1.6 2.3-2.3.1-.1.3-.3.5-.3.4 2.4.8 4.8 1.1 7.2.5 2.9.9 5.8 1.4 8.6.5 3 1 6.1 1.4 9.1.2 1 .3 2.1.5 3.1.1.5.1.5-.4.4l-1.5-.3c-.2 0-.3-.1-.3-.3.1-.5-.2-.8-.6-1-.5-.3-1.1-.5-1.7-.6-.1 0-.3 0-.3-.1-.5-.7-1.3-1-2.1-1.3.7-.2 1.3-.4 1.9-.4.7.1 1.5-.1 2.2.1.1 0 .2 0 .2-.1 0-.2.1-.3 0-.5 0-.1-.1-.1-.2-.1-1.1-.7-2.3-1.3-3.6-1.6-1-.2-1.9-.5-2.9-.5-.1.1-.4.3-.3 0z"/><path d="M29.5 24.8L28 26.3c-1.9 1.9-3.9 3.7-5.9 5.3.3-1.5.2-3.1-.1-4.6-.2-.8 0-1.6-.1-2.4-.2-1.9-.4-3.7-.8-5.6 0-.2-.1-.3 0-.5.8-3.9 1.1-7.9 1.4-11.8.1-1.8.2-3.5.3-5.3 0-.3.1-.4.4-.4h2.3c.3 0 .3.1.4.3l2.4 15.6 1.2 7.5v.4z" fill="#1b96c8"/><path d="M22.1 45c1.4-1.2 2.8-1.9 4.7-1.6.5.1.9.3 1.3.7.2.3.2.5-.1.6-.5.2-.9.1-1.4.1-1.4-.2-2.7-.2-4.1.2h-.4z" fill="#fefefe"/><path d="M21.3 43c0-.2.1-.3.2-.4.8-.8 1.6-1.7 2.7-2.3.2-.1.5-.2.8-.4.1 0 .2 0 .3.1.1.1.1.2 0 .3-.1.1-.2.3-.3.4-.9.8-1.8 1.6-3 2.1-.1.1-.3.1-.4.2h-.3z" fill="#fdfdfe"/><path d="M21.2 39.3c.2.3.1.7.1 1-.1-.3 0-.6-.1-1z" fill="#aeabc1"/><path d="M24.4 46.4c0 .1.2.1.3.2h-.5c0-.2 0-.2.2-.2z" fill="#534f77"/></g></svg>